<?xml version="1.0" encoding="UTF-8" standalone="no"?>
<!DOCTYPE svg PUBLIC "-//W3C//DTD SVG 1.1//EN" "http://www.w3.org/Graphics/SVG/1.1/DTD/svg11.dtd">
<svg width="100%" height="100%" viewBox="0 0 1200 1200" version="1.1" xmlns="http://www.w3.org/2000/svg" xmlns:xlink="http://www.w3.org/1999/xlink" xml:space="preserve" xmlns:serif="http://www.serif.com/" style="fill-rule:evenodd;clip-rule:evenodd;stroke-linejoin:round;stroke-miterlimit:2;">
    <path d="M1129.01,171.001C1149.17,171.198 1169.01,180.256 1182.41,195.35C1194.2,208.642 1200.84,226.442 1201,244.04C1201.72,481.873 1201,719.708 1201,957.542C1200.93,981.978 1188.21,1005.86 1167.89,1019.21C1156.44,1026.74 1142.93,1030.87 1129.01,1031C777.143,1032.17 425.275,1031 73.409,1031C44.19,1030.9 16.299,1011.59 5.791,983.807C2.673,975.564 1.081,966.745 0.999,957.963C0.262,720.129 0.998,482.293 0.998,244.457C1.072,220.439 13.458,196.709 33.373,183.274C44.983,175.441 58.8,171.14 72.99,171.001C424.994,169.866 777.004,169.867 1129.01,171.001ZM73.507,231C66.825,231.022 61.11,237.188 60.999,244.313C58.792,482.126 57.319,719.987 61.001,957.781C61.146,964.464 66.433,970.933 73.378,971C425.175,972.173 777.023,976.724 1128.78,970.998C1135.37,970.847 1140.93,964.649 1141,957.595C1141.72,719.805 1144.73,481.985 1141,244.224C1140.85,237.511 1135.53,231.068 1128.62,231C776.917,229.867 425.211,231 73.507,231Z"/>
    <path d="M806.319,185.975C808.462,187.1 810.635,188.256 812.228,190.053C814.62,192.754 815.556,196.341 816,200L816,1000C815.127,1007.19 810.381,1013.97 802.808,1014.89C795.541,1015.77 788.181,1010.67 786.436,1003.59C786.147,1002.42 786.145,1001.2 786,1000L786,200C786.292,197.597 786.602,195.155 787.718,193.029C789.418,189.791 792.327,187.247 795.681,185.975C798.723,184.821 799.625,185.109 802.808,185.109C803.978,185.398 805.149,185.686 806.319,185.975Z"/>
</svg>
