<?xml version="1.0" encoding="UTF-8" standalone="no"?>
<!DOCTYPE svg PUBLIC "-//W3C//DTD SVG 1.1//EN" "http://www.w3.org/Graphics/SVG/1.1/DTD/svg11.dtd">
<svg width="100%" height="100%" viewBox="0 0 1200 1200" version="1.1" xmlns="http://www.w3.org/2000/svg" xmlns:xlink="http://www.w3.org/1999/xlink" xml:space="preserve" xmlns:serif="http://www.serif.com/" style="fill-rule:evenodd;clip-rule:evenodd;stroke-linejoin:round;stroke-miterlimit:2;">
    <g transform="matrix(0.944683,0,0,0.945,33,31)">
        <path d="M1204.13,-20.757C1207.64,-19.694 1208.67,-19.663 1211.76,-17.597C1216.38,-14.509 1219.68,-9.581 1220.76,-4.129C1221.03,-2.773 1221.04,-1.376 1221.17,0L1221.17,1200C1220.81,1203.65 1220.98,1204.66 1219.56,1208.1C1217.43,1213.24 1213.24,1217.43 1208.1,1219.55C1204.67,1220.98 1203.65,1220.81 1200,1221.16L0,1221.16C-3.648,1220.81 -4.666,1220.98 -8.102,1219.55C-13.239,1217.43 -17.432,1213.24 -19.56,1208.1C-20.983,1204.66 -20.812,1203.65 -21.171,1200L-21.171,0C-20.812,-3.646 -20.983,-4.664 -19.56,-8.099C-17.432,-13.235 -13.239,-17.426 -8.102,-19.553C-4.666,-20.976 -3.648,-20.805 0,-21.164L1200,-21.164C1201.38,-21.028 1202.75,-20.893 1204.13,-20.757ZM21.171,21.164L21.171,1178.84L1178.83,1178.84L1178.83,21.164L21.171,21.164Z"/>
    </g>
    <g transform="matrix(864.153,0,0,864.153,198.596,939.489)">
        <path d="M0.813,-0.179C0.813,-0.193 0.807,-0.206 0.797,-0.217L0.681,-0.333C0.67,-0.343 0.658,-0.348 0.643,-0.348C0.627,-0.348 0.614,-0.342 0.603,-0.33C0.604,-0.329 0.607,-0.326 0.613,-0.32C0.619,-0.314 0.623,-0.31 0.625,-0.308C0.627,-0.306 0.63,-0.302 0.634,-0.297C0.637,-0.293 0.64,-0.288 0.641,-0.283C0.642,-0.279 0.643,-0.273 0.643,-0.268C0.643,-0.253 0.638,-0.24 0.627,-0.23C0.617,-0.219 0.604,-0.214 0.589,-0.214C0.584,-0.214 0.579,-0.215 0.574,-0.216C0.569,-0.218 0.565,-0.22 0.56,-0.223C0.555,-0.227 0.551,-0.23 0.549,-0.232C0.547,-0.234 0.543,-0.238 0.537,-0.244C0.531,-0.25 0.528,-0.253 0.527,-0.254C0.515,-0.243 0.508,-0.229 0.508,-0.214C0.508,-0.199 0.514,-0.186 0.524,-0.176L0.639,-0.06C0.649,-0.05 0.662,-0.045 0.677,-0.045C0.692,-0.045 0.704,-0.05 0.715,-0.06L0.797,-0.141C0.807,-0.152 0.813,-0.164 0.813,-0.179ZM0.42,-0.572C0.42,-0.587 0.415,-0.6 0.405,-0.61L0.29,-0.725C0.279,-0.736 0.267,-0.741 0.252,-0.741C0.237,-0.741 0.225,-0.736 0.214,-0.726L0.132,-0.645C0.121,-0.634 0.116,-0.622 0.116,-0.607C0.116,-0.592 0.121,-0.58 0.132,-0.569L0.248,-0.453C0.258,-0.443 0.27,-0.438 0.286,-0.438C0.301,-0.438 0.315,-0.444 0.326,-0.455C0.325,-0.456 0.321,-0.46 0.315,-0.466C0.309,-0.471 0.305,-0.475 0.303,-0.478C0.301,-0.48 0.298,-0.483 0.295,-0.488C0.291,-0.493 0.289,-0.498 0.288,-0.503C0.286,-0.507 0.286,-0.512 0.286,-0.518C0.286,-0.533 0.291,-0.545 0.301,-0.556C0.312,-0.566 0.324,-0.571 0.339,-0.571C0.345,-0.571 0.35,-0.571 0.355,-0.569C0.359,-0.568 0.364,-0.566 0.369,-0.562C0.374,-0.559 0.377,-0.556 0.379,-0.554C0.382,-0.552 0.386,-0.548 0.391,-0.542C0.397,-0.536 0.401,-0.532 0.402,-0.531C0.414,-0.543 0.42,-0.556 0.42,-0.572ZM0.873,-0.292C0.904,-0.261 0.92,-0.223 0.92,-0.179C0.92,-0.134 0.904,-0.096 0.872,-0.065L0.79,0.016C0.759,0.047 0.722,0.063 0.677,0.063C0.632,0.063 0.594,0.047 0.563,0.015L0.448,-0.1C0.417,-0.131 0.402,-0.169 0.402,-0.214C0.402,-0.259 0.418,-0.298 0.451,-0.33L0.402,-0.379C0.37,-0.347 0.331,-0.33 0.286,-0.33C0.241,-0.33 0.203,-0.346 0.172,-0.377L0.056,-0.493C0.025,-0.525 0.009,-0.563 0.009,-0.607C0.009,-0.652 0.025,-0.69 0.056,-0.72L0.138,-0.802C0.169,-0.833 0.207,-0.848 0.252,-0.848C0.297,-0.848 0.335,-0.832 0.366,-0.801L0.48,-0.685C0.511,-0.654 0.527,-0.617 0.527,-0.572C0.527,-0.526 0.51,-0.487 0.478,-0.455L0.527,-0.406C0.559,-0.439 0.597,-0.455 0.643,-0.455C0.688,-0.455 0.725,-0.44 0.757,-0.408L0.873,-0.292Z" style="fill-rule:nonzero;"/>
    </g>
</svg>
