<?xml version="1.0" encoding="UTF-8" standalone="no"?>
<!DOCTYPE svg PUBLIC "-//W3C//DTD SVG 1.1//EN" "http://www.w3.org/Graphics/SVG/1.1/DTD/svg11.dtd">
<svg width="100%" height="100%" viewBox="0 0 1200 1200" version="1.1" xmlns="http://www.w3.org/2000/svg" xmlns:xlink="http://www.w3.org/1999/xlink" xml:space="preserve" xmlns:serif="http://www.serif.com/" style="fill-rule:evenodd;clip-rule:evenodd;stroke-linejoin:round;stroke-miterlimit:2;">
    <g transform="matrix(0.966542,0,0,1.28705,19.4662,93.6976)">
        <path d="M1220.69,771.124L-20.692,771.124L-20.692,-15.539L1220.69,-15.539L1220.69,771.124ZM20.893,449.005L20.692,740.045L1179.31,740.045L1179.49,449.005L20.893,449.005Z"/>
    </g>
    <path d="M604.158,734.659C609.523,736.402 614.522,739.374 617.321,744.222C622.208,752.686 619.74,764.601 611.756,770.402C608.376,772.857 604.213,773.779 600,774.222L99.649,774.222C94.039,773.632 88.531,771.764 84.786,767.604C78.246,760.341 78.182,748.173 84.786,740.839C87.606,737.707 91.421,735.524 95.49,734.659C96.854,734.369 98.263,734.367 99.649,734.222L600,734.222C601.386,734.367 602.772,734.513 604.158,734.659Z"/>
</svg>
