<?xml version="1.0" encoding="UTF-8" standalone="no"?>
<!DOCTYPE svg PUBLIC "-//W3C//DTD SVG 1.1//EN" "http://www.w3.org/Graphics/SVG/1.1/DTD/svg11.dtd">
<svg width="100%" height="100%" viewBox="0 0 1200 1200" version="1.1" xmlns="http://www.w3.org/2000/svg" xmlns:xlink="http://www.w3.org/1999/xlink" xml:space="preserve" xmlns:serif="http://www.serif.com/" style="fill-rule:evenodd;clip-rule:evenodd;stroke-linejoin:round;stroke-miterlimit:2;">
    <g transform="matrix(64.0224,0,0,51.4066,-169.675,-95.9124)">
        <path d="M19.624,4.986L19.624,18.981L4.531,18.981L4.531,4.986L19.624,4.986M19,3L5,3C3.9,3 3,3.9 3,5L3,19C3,20.1 3.9,21 5,21L19,21C20.1,21 21,20.1 21,19L21,5C21,3.9 20.1,3 19,3ZM14.14,11.86L11.14,15.73L9,13.14L6,17L18,17L14.14,11.86Z" style="fill-rule:nonzero;"/>
    </g>
    <g transform="matrix(6.66509e-16,5.34124,-5.34124,6.66509e-16,599.956,1101.43)">
        <path d="M-15.848,-0.102C-15.792,-5.914 -12.37,-11.51 -7.13,-14.155C-1.171,-17.163 6.64,-15.939 11.404,-11.001C16.272,-5.956 17.289,2.479 13.296,8.624C10.831,12.416 6.684,15.068 2.211,15.694C-2.72,16.385 -7.939,14.592 -11.404,11.002C-14.195,8.11 -15.809,4.14 -15.848,0.102L-15.848,-0.102ZM-8.359,0.054C-8.323,3.824 -5.498,7.359 -1.788,8.168C0.971,8.769 4.006,7.859 5.98,5.838C8.227,3.536 8.983,-0.123 7.743,-3.156C6.65,-5.828 4.085,-7.851 1.224,-8.271C-2.3,-8.787 -6.057,-6.787 -7.58,-3.528C-8.102,-2.41 -8.363,-1.176 -8.359,0.054Z"/>
    </g>
    <g transform="matrix(4.44089e-16,3.55882,-3.55882,4.44089e-16,300.382,1102)">
        <path d="M-16.318,-0.105C-16.26,-6.136 -12.626,-11.948 -7.254,-14.619C-2.825,-16.821 2.615,-16.857 7.076,-14.706C14.41,-11.17 18.373,-1.677 15.072,6.26C12.906,11.468 7.875,15.376 2.277,16.16C-2.737,16.863 -8.043,15.074 -11.606,11.468C-14.559,8.48 -16.277,4.324 -16.318,0.105C-16.319,0.035 -16.319,-0.035 -16.318,-0.105ZM-7.889,0.051C-7.854,3.583 -5.202,6.919 -1.736,7.698C3.666,8.91 9.833,3.2 7.307,-2.978C5.641,-7.054 0.227,-9.103 -3.755,-6.939C-6.249,-5.583 -7.898,-2.798 -7.889,0.051Z"/>
    </g>
    <g transform="matrix(4.44089e-16,3.55882,-3.55882,4.44089e-16,901.382,1102)">
        <path d="M-16.318,-0.105C-16.26,-6.108 -12.669,-11.885 -7.342,-14.575C-2.902,-16.816 2.588,-16.87 7.076,-14.706C14.41,-11.17 18.373,-1.677 15.072,6.26C12.906,11.468 7.875,15.376 2.277,16.16C-2.804,16.872 -8.177,15.024 -11.742,11.328C-14.616,8.351 -16.278,4.261 -16.318,0.105C-16.319,0.035 -16.319,-0.035 -16.318,-0.105ZM-7.889,0.051C-7.855,3.565 -5.235,6.889 -1.783,7.687C2.756,8.735 7.855,5.084 7.889,0.051C7.913,-3.693 4.942,-7.226 1.205,-7.798C-3.151,-8.464 -7.749,-4.975 -7.886,-0.205C-7.888,-0.12 -7.889,-0.034 -7.889,0.051Z"/>
    </g>
</svg>
