<?xml version="1.0" encoding="UTF-8" standalone="no"?>
<!DOCTYPE svg PUBLIC "-//W3C//DTD SVG 1.1//EN" "http://www.w3.org/Graphics/SVG/1.1/DTD/svg11.dtd">
<svg width="100%" height="100%" viewBox="0 0 1200 1200" version="1.1" xmlns="http://www.w3.org/2000/svg" xmlns:xlink="http://www.w3.org/1999/xlink" xml:space="preserve" xmlns:serif="http://www.serif.com/" style="fill-rule:evenodd;clip-rule:evenodd;stroke-linejoin:round;stroke-miterlimit:2;">
    <g transform="matrix(0.944683,0,0,0.945,33,31)">
        <path d="M1204.13,-20.757C1207.64,-19.694 1208.67,-19.663 1211.76,-17.597C1216.38,-14.509 1219.68,-9.581 1220.76,-4.129C1221.03,-2.773 1221.04,-1.376 1221.17,0L1221.17,1200C1220.81,1203.65 1220.98,1204.66 1219.56,1208.1C1217.43,1213.24 1213.24,1217.43 1208.1,1219.55C1204.67,1220.98 1203.65,1220.81 1200,1221.16L0,1221.16C-3.648,1220.81 -4.666,1220.98 -8.102,1219.55C-13.239,1217.43 -17.432,1213.24 -19.56,1208.1C-20.983,1204.66 -20.812,1203.65 -21.171,1200L-21.171,0C-20.812,-3.646 -20.983,-4.664 -19.56,-8.099C-17.432,-13.235 -13.239,-17.426 -8.102,-19.553C-4.666,-20.976 -3.648,-20.805 0,-21.164L1200,-21.164C1201.38,-21.028 1202.75,-20.893 1204.13,-20.757ZM21.171,21.164L21.171,1178.84L1178.83,1178.84L1178.83,21.164L21.171,21.164Z"/>
    </g>
    <g transform="matrix(0.828,0,0,0.847,103.01,89.8)">
        <path d="M285.058,1078.13C286.675,1078.68 288.365,1079.06 289.908,1079.79C300.75,1084.89 305.973,1098.88 300.626,1109.73C297.635,1115.81 291.78,1120.37 285.058,1121.87C283.388,1122.24 281.654,1122.25 279.952,1122.43L188.164,1122.43C186.462,1122.25 184.728,1122.24 183.058,1121.87C166.798,1118.24 158.64,1094.33 173.857,1082.46C176.552,1080.36 179.697,1078.88 183.058,1078.13C184.728,1077.76 186.462,1077.76 188.164,1077.57L279.952,1077.57C281.654,1077.76 283.356,1077.94 285.058,1078.13ZM468.633,1078.13C470.249,1078.68 471.94,1079.06 473.483,1079.79C487.294,1086.29 490.835,1107.4 477.834,1117.54C475.138,1119.64 471.994,1121.12 468.633,1121.87C466.963,1122.24 465.229,1122.25 463.527,1122.43L371.739,1122.43C370.037,1122.25 368.303,1122.24 366.633,1121.87C353.492,1118.94 344.713,1103.16 351.065,1090.27C354.056,1084.19 359.911,1079.63 366.633,1078.13C368.303,1077.76 370.037,1077.76 371.739,1077.57L463.527,1077.57C465.229,1077.76 466.931,1077.94 468.633,1078.13ZM652.208,1078.13C653.824,1078.68 655.515,1079.06 657.058,1079.79C666.393,1084.18 671.783,1095.1 669.473,1104.99C667.55,1113.23 660.61,1120 652.208,1121.87C650.538,1122.24 648.804,1122.25 647.101,1122.43L555.314,1122.43C553.612,1122.25 551.878,1122.24 550.208,1121.87C536.886,1118.9 528.342,1103.05 534.64,1090.27C537.631,1084.19 543.486,1079.63 550.208,1078.13C551.878,1077.76 553.612,1077.76 555.314,1077.57L647.101,1077.57C648.804,1077.76 650.506,1077.94 652.208,1078.13ZM835.783,1078.13C837.399,1078.68 839.089,1079.06 840.633,1079.79C854.443,1086.29 857.985,1107.4 844.983,1117.54C842.288,1119.64 839.143,1121.12 835.783,1121.87C834.113,1122.24 832.378,1122.25 830.676,1122.43L738.889,1122.43C737.187,1122.25 735.453,1122.24 733.783,1121.87C720.461,1118.9 711.916,1103.05 718.215,1090.27C721.206,1084.19 727.061,1079.63 733.783,1078.13C735.453,1077.76 737.187,1077.76 738.889,1077.57L830.676,1077.57C832.378,1077.76 834.08,1077.94 835.783,1078.13ZM1019.36,1078.13C1020.97,1078.68 1022.66,1079.06 1024.21,1079.79C1033.54,1084.18 1038.93,1095.1 1036.62,1104.99C1034.7,1113.23 1027.76,1120 1019.36,1121.87C1017.69,1122.24 1015.95,1122.25 1014.25,1122.43L922.464,1122.43C920.762,1122.25 919.028,1122.24 917.358,1121.87C904.036,1118.9 895.491,1103.05 901.789,1090.27C904.781,1084.19 910.636,1079.63 917.358,1078.13C919.028,1077.76 920.762,1077.76 922.464,1077.57L1014.25,1077.57C1015.95,1077.76 1017.65,1077.94 1019.36,1078.13ZM105.106,984.86C108.353,985.97 111.64,987.112 114.307,989.192C118.36,992.351 121.234,996.865 122.372,1001.74C122.753,1003.37 122.755,1005.07 122.947,1006.73L122.947,1096.46C122.755,1098.12 122.753,1099.82 122.372,1101.45C120.086,1111.24 110.508,1118.89 100,1118.89C89.623,1118.89 79.932,1111.32 77.628,1101.45C77.247,1099.82 77.245,1098.12 77.053,1096.46L77.053,1006.73C77.438,1003.39 77.845,1000 79.326,996.997C81.575,992.431 85.437,988.688 90.044,986.519C94.203,984.561 95.5,984.793 100,984.298C101.702,984.485 103.404,984.672 105.106,984.86ZM1105.11,982.499C1110,984.174 1114.77,986.498 1117.94,990.382C1120.09,993.017 1121.6,996.091 1122.37,999.377C1122.75,1001.01 1122.76,1002.7 1122.95,1004.37L1122.95,1094.1C1122.76,1095.76 1122.75,1097.46 1122.37,1099.09C1119.33,1112.11 1103.12,1120.46 1090.04,1114.31C1083.83,1111.38 1079.16,1105.66 1077.63,1099.09C1077.25,1097.46 1077.25,1095.76 1077.05,1094.1L1077.05,1004.37C1077.56,999.969 1077.32,998.701 1079.33,994.635C1082.28,988.639 1088.19,983.995 1094.89,982.499C1098.22,981.756 1101.69,982.122 1105.11,982.499ZM105.106,805.403C108.353,806.514 111.64,807.655 114.307,809.735C118.36,812.894 121.234,817.408 122.372,822.281C122.753,823.914 122.755,825.609 122.947,827.273L122.947,917.001C122.755,918.665 122.753,920.36 122.372,921.993C120.086,931.782 110.508,939.433 100,939.433C89.623,939.433 79.932,931.859 77.628,921.993C77.247,920.36 77.245,918.665 77.053,917.001L77.053,827.273C77.438,823.932 77.845,820.545 79.326,817.54C81.575,812.974 85.437,809.231 90.044,807.062C94.203,805.104 95.5,805.336 100,804.841C101.702,805.028 103.404,805.216 105.106,805.403ZM1105.11,803.042C1110,804.717 1114.77,807.041 1117.94,810.925C1120.09,813.56 1121.6,816.634 1122.37,819.92C1122.75,821.552 1122.76,823.248 1122.95,824.911L1122.95,914.64C1122.76,916.304 1122.75,917.999 1122.37,919.631C1119.72,930.974 1107.08,939.229 1094.89,936.51C1086.47,934.63 1079.55,927.845 1077.63,919.631C1077.25,917.999 1077.25,916.304 1077.05,914.64L1077.05,824.911C1077.56,820.512 1077.32,819.244 1079.33,815.178C1082.33,809.083 1088.24,804.526 1094.89,803.042C1098.22,802.3 1101.69,802.665 1105.11,803.042ZM105.106,625.946C106.723,626.499 108.413,626.879 109.956,627.605C116.192,630.541 120.853,636.321 122.372,642.824C122.753,644.457 122.755,646.152 122.947,647.816L122.947,737.544C122.755,739.208 122.753,740.903 122.372,742.536C119.723,753.879 107.083,762.134 94.894,759.414C86.471,757.535 79.546,750.75 77.628,742.536C77.247,740.903 77.245,739.208 77.053,737.544L77.053,647.816C77.438,644.475 77.845,641.088 79.326,638.083C81.575,633.517 85.437,629.774 90.044,627.605C94.203,625.647 95.5,625.879 100,625.384C101.702,625.571 103.404,625.759 105.106,625.946ZM1105.11,623.585C1110,625.26 1114.77,627.584 1117.94,631.468C1120.09,634.103 1121.6,637.177 1122.37,640.463C1122.75,642.095 1122.76,643.791 1122.95,645.455L1122.95,735.183C1122.76,736.847 1122.75,738.542 1122.37,740.175C1119.72,751.517 1107.08,759.772 1094.89,757.053C1086.47,755.173 1079.55,748.388 1077.63,740.175C1077.25,738.542 1077.25,736.847 1077.05,735.183L1077.05,645.455C1077.56,641.055 1077.32,639.787 1079.33,635.722C1082.33,629.626 1088.24,625.069 1094.89,623.585C1098.22,622.843 1101.69,623.208 1105.11,623.585ZM105.106,446.489C106.723,447.042 108.413,447.422 109.956,448.148C116.192,451.084 120.853,456.864 122.372,463.367C122.753,465 122.755,466.695 122.947,468.359L122.947,558.087C122.755,559.751 122.753,561.447 122.372,563.079C119.312,576.183 102.904,584.352 90.044,578.298C83.832,575.374 79.163,569.65 77.628,563.079C77.247,561.447 77.245,559.751 77.053,558.087L77.053,468.359C77.56,463.96 77.323,462.692 79.326,458.626C82.329,452.53 88.241,447.974 94.894,446.489C98.22,445.747 101.688,446.113 105.106,446.489ZM1105.11,444.128C1110,445.803 1114.77,448.127 1117.94,452.011C1120.09,454.646 1121.6,457.72 1122.37,461.006C1122.75,462.638 1122.76,464.334 1122.95,465.998L1122.95,555.726C1122.76,557.39 1122.75,559.085 1122.37,560.718C1119.72,572.06 1107.08,580.315 1094.89,577.596C1086.47,575.716 1079.55,568.931 1077.63,560.718C1077.25,559.085 1077.25,557.39 1077.05,555.726L1077.05,465.998C1077.56,461.598 1077.32,460.33 1079.33,456.265C1082.29,450.242 1088.16,445.631 1094.89,444.128C1098.22,443.386 1101.69,443.751 1105.11,444.128ZM105.106,267.032C106.723,267.585 108.413,267.965 109.956,268.691C116.192,271.627 120.853,277.407 122.372,283.91C122.753,285.543 122.755,287.238 122.947,288.902L122.947,378.63C122.755,380.294 122.753,381.99 122.372,383.622C120.066,393.497 110.381,401.063 100,401.063C89.679,401.063 79.939,393.518 77.628,383.622C77.247,381.99 77.245,380.294 77.053,378.63L77.053,288.902C77.56,284.503 77.323,283.235 79.326,279.169C82.292,273.147 88.159,268.535 94.894,267.032C98.22,266.29 101.688,266.656 105.106,267.032ZM1105.11,264.671C1110,266.346 1114.77,268.67 1117.94,272.555C1120.09,275.189 1121.6,278.264 1122.37,281.549C1122.75,283.182 1122.76,284.877 1122.95,286.541L1122.95,376.269C1122.76,377.933 1122.75,379.628 1122.37,381.261C1120.09,391.05 1110.51,398.701 1100,398.701C1089.62,398.701 1079.93,391.127 1077.63,381.261C1077.25,379.628 1077.25,377.933 1077.05,376.269L1077.05,286.541C1077.56,282.141 1077.32,280.873 1079.33,276.808C1082.28,270.811 1088.19,266.167 1094.89,264.671C1098.22,263.929 1101.69,264.295 1105.11,264.671ZM105.106,87.575C108.353,88.686 111.64,89.827 114.307,91.907C118.36,95.067 121.234,99.581 122.372,104.454C122.753,106.086 122.755,107.781 122.947,109.445L122.947,199.174C122.755,200.837 122.753,202.533 122.372,204.165C119.723,215.508 107.083,223.763 94.894,221.043C86.471,219.164 79.546,212.379 77.628,204.165C77.247,202.533 77.245,200.837 77.053,199.174L77.053,109.445C77.56,105.046 77.323,103.778 79.326,99.712C82.28,93.716 88.188,89.072 94.894,87.575C98.22,86.833 101.688,87.199 105.106,87.575ZM1105.11,85.214C1106.72,85.767 1108.41,86.147 1109.96,86.873C1116.19,89.809 1120.85,95.589 1122.37,102.092C1122.75,103.725 1122.76,105.42 1122.95,107.084L1122.95,196.812C1122.76,198.476 1122.75,200.171 1122.37,201.804C1119.35,214.744 1103.23,223.232 1090.04,217.023C1083.83,214.099 1079.16,208.375 1077.63,201.804C1077.25,200.171 1077.25,198.476 1077.05,196.812L1077.05,107.084C1077.44,103.743 1077.85,100.356 1079.33,97.351C1081.58,92.785 1085.44,89.042 1090.04,86.873C1094.2,84.915 1095.5,85.147 1100,84.652C1101.7,84.839 1103.4,85.027 1105.11,85.214ZM279.019,78.13C280.636,78.683 282.326,79.063 283.869,79.789C293.204,84.184 298.594,95.098 296.285,104.992C294.362,113.226 287.421,119.995 279.019,121.87C277.349,122.242 275.615,122.245 273.913,122.432L182.126,122.432C180.424,122.245 178.689,122.242 177.019,121.87C163.614,118.879 155.258,102.839 161.451,90.267C164.443,84.195 170.298,79.63 177.019,78.13C178.689,77.758 180.424,77.755 182.126,77.568L273.913,77.568C275.615,77.755 277.317,77.943 279.019,78.13ZM462.594,78.13C464.211,78.683 465.901,79.063 467.444,79.789C481.255,86.291 484.796,107.402 471.795,117.538C469.1,119.639 465.955,121.12 462.594,121.87C460.924,122.242 459.19,122.245 457.488,122.432L365.7,122.432C363.998,122.245 362.264,122.242 360.594,121.87C347.357,118.916 338.674,103.161 345.026,90.267C348.018,84.195 353.873,79.63 360.594,78.13C362.264,77.758 363.998,77.755 365.7,77.568L457.488,77.568C459.19,77.755 460.892,77.943 462.594,78.13ZM646.169,78.13C647.786,78.683 649.476,79.063 651.019,79.789C664.512,86.141 668.761,107.098 655.37,117.538C652.675,119.639 649.53,121.12 646.169,121.87C644.499,122.242 642.765,122.245 641.063,122.432L549.275,122.432C547.573,122.245 545.839,122.242 544.169,121.87C530.764,118.879 522.408,102.839 528.601,90.267C531.592,84.195 537.447,79.63 544.169,78.13C545.839,77.758 547.573,77.755 549.275,77.568L641.063,77.568C642.765,77.755 644.467,77.943 646.169,78.13ZM829.744,78.13C831.361,78.683 833.051,79.063 834.594,79.789C843.929,84.184 849.319,95.098 847.009,104.992C845.087,113.226 838.146,119.995 829.744,121.87C828.074,122.242 826.34,122.245 824.638,122.432L732.85,122.432C731.148,122.245 729.414,122.242 727.744,121.87C711.484,118.242 703.326,94.325 718.543,82.462C721.238,80.361 724.383,78.88 727.744,78.13C729.414,77.758 731.148,77.755 732.85,77.568L824.638,77.568C826.34,77.755 828.042,77.943 829.744,78.13ZM1013.32,78.13C1014.94,78.683 1016.63,79.063 1018.17,79.789C1027.5,84.184 1032.89,95.098 1030.58,104.992C1028.66,113.226 1021.72,119.995 1013.32,121.87C1011.65,122.242 1009.92,122.245 1008.21,122.432L916.425,122.432C914.723,122.245 912.989,122.242 911.319,121.87C897.914,118.879 889.558,102.839 895.751,90.267C898.742,84.195 904.597,79.63 911.319,78.13C912.989,77.758 914.723,77.755 916.425,77.568L1008.21,77.568C1009.92,77.755 1011.62,77.943 1013.32,78.13Z"/>
    </g>
    <path d="M36.132,11.247C37.478,11.608 38.869,11.83 40.17,12.33C43.672,13.674 44.278,14.538 47.145,16.86L1180.76,1150.86C1183.43,1154.15 1185.72,1157.75 1186.37,1161.88C1188.12,1172.91 1179.16,1184.37 1167.66,1184.97C1163.45,1185.19 1159.21,1184.04 1155.72,1181.77C1154.56,1181.01 1153.56,1180.02 1152.48,1179.14L18.855,45.14C16.534,42.272 15.671,41.666 14.327,38.164C10.875,29.165 15.098,17.673 23.923,13.178C27.266,11.476 28.313,11.604 31.957,11.027C33.348,11.1 34.74,11.174 36.132,11.247Z"/>
    <g transform="matrix(-1,0,0,1,1199.62,0)">
        <path d="M27.827,11.681C24.383,13.002 23.332,13.095 20.416,15.455C13.999,20.65 11.264,30.181 14.327,38.164C15.671,41.666 16.534,42.272 18.856,45.14L1152.48,1179.14C1156.86,1182.69 1162.07,1185.27 1167.66,1184.97C1178.73,1184.39 1188.2,1173.44 1186.37,1161.88C1185.72,1157.75 1183.43,1154.15 1180.76,1150.86L47.145,16.86C43.853,14.194 40.258,11.901 36.132,11.247C33.384,10.811 30.586,11.244 27.827,11.681Z"/>
    </g>
</svg>
