<?xml version="1.0" encoding="UTF-8" standalone="no"?>
<!DOCTYPE svg PUBLIC "-//W3C//DTD SVG 1.1//EN" "http://www.w3.org/Graphics/SVG/1.1/DTD/svg11.dtd">
<svg width="100%" height="100%" viewBox="0 0 1200 1200" version="1.1" xmlns="http://www.w3.org/2000/svg" xmlns:xlink="http://www.w3.org/1999/xlink" xml:space="preserve" xmlns:serif="http://www.serif.com/" style="fill-rule:evenodd;clip-rule:evenodd;stroke-linejoin:round;stroke-miterlimit:2;">
    <path d="M1148.31,7.915C1150.52,8.446 1152.77,8.829 1154.94,9.51C1170.18,14.296 1182.71,26.77 1187.57,41.942C1192.44,57.114 1189.52,74.525 1179.89,87.303C1178.53,89.12 1176.91,90.742 1175.42,92.461L95.463,1179.03C90.917,1183.02 89.937,1184.29 84.638,1187.29C70.74,1195.16 53.073,1195.8 38.664,1189C24.254,1182.2 13.52,1168.19 10.753,1152.43C8.389,1138.96 11.841,1124.61 20.068,1113.69C21.437,1111.87 23.047,1110.25 24.537,1108.53L1104.5,21.966C1106.21,20.466 1107.82,18.845 1109.63,17.465C1115.06,13.319 1121.34,10.31 1127.98,8.671C1133.89,7.211 1135.47,7.462 1141.52,7.237C1143.78,7.463 1146.04,7.689 1148.31,7.915Z"/>
    <g transform="matrix(0.471757,0.471757,-0.473367,0.473367,606.484,-321.087)">
        <path d="M1148.31,7.915C1150.52,8.446 1152.77,8.829 1154.94,9.51C1170.18,14.296 1182.71,26.77 1187.57,41.942C1192.44,57.114 1189.52,74.525 1179.89,87.303C1178.53,89.12 1176.91,90.742 1175.42,92.461L95.463,1179.03C90.917,1183.02 89.937,1184.29 84.638,1187.29C70.74,1195.16 53.073,1195.8 38.664,1189C24.254,1182.2 13.52,1168.19 10.753,1152.43C8.389,1138.96 11.841,1124.61 20.068,1113.69C21.437,1111.87 23.047,1110.25 24.537,1108.53L1104.5,21.966C1106.21,20.466 1107.82,18.845 1109.63,17.465C1115.06,13.319 1121.34,10.31 1127.98,8.671C1133.89,7.211 1135.47,7.462 1141.52,7.237C1143.78,7.463 1146.04,7.689 1148.31,7.915Z"/>
    </g>
    <g transform="matrix(0.471757,0.471757,-0.473367,0.473367,605.845,-85.4178)">
        <path d="M1148.31,7.915C1150.52,8.446 1152.77,8.829 1154.94,9.51C1170.18,14.296 1182.71,26.77 1187.57,41.942C1192.44,57.114 1189.52,74.525 1179.89,87.303C1178.53,89.12 1176.91,90.742 1175.42,92.461L95.463,1179.03C90.917,1183.02 89.937,1184.29 84.638,1187.29C70.74,1195.16 53.073,1195.8 38.664,1189C24.254,1182.2 13.52,1168.19 10.753,1152.43C8.389,1138.96 11.841,1124.61 20.068,1113.69C21.437,1111.87 23.047,1110.25 24.537,1108.53L1104.5,21.966C1106.21,20.466 1107.82,18.845 1109.63,17.465C1115.06,13.319 1121.34,10.31 1127.98,8.671C1133.89,7.211 1135.47,7.462 1141.52,7.237C1143.78,7.463 1146.04,7.689 1148.31,7.915Z"/>
    </g>
    <g transform="matrix(0.471757,0.471757,-0.473367,0.473367,606.484,150.251)">
        <path d="M1148.31,7.915C1150.52,8.446 1152.77,8.829 1154.94,9.51C1170.18,14.296 1182.71,26.77 1187.57,41.942C1192.44,57.114 1189.52,74.525 1179.89,87.303C1178.53,89.12 1176.91,90.742 1175.42,92.461L95.463,1179.03C90.917,1183.02 89.937,1184.29 84.638,1187.29C70.74,1195.16 53.073,1195.8 38.664,1189C24.254,1182.2 13.52,1168.19 10.753,1152.43C8.389,1138.96 11.841,1124.61 20.068,1113.69C21.437,1111.87 23.047,1110.25 24.537,1108.53L1104.5,21.966C1106.21,20.466 1107.82,18.845 1109.63,17.465C1115.06,13.319 1121.34,10.31 1127.98,8.671C1133.89,7.211 1135.47,7.462 1141.52,7.237C1143.78,7.463 1146.04,7.689 1148.31,7.915Z"/>
    </g>
    <g transform="matrix(0.471757,0.471757,-0.473367,0.473367,606.484,385.92)">
        <path d="M1148.31,7.915C1150.52,8.446 1152.77,8.829 1154.94,9.51C1170.18,14.296 1182.71,26.77 1187.57,41.942C1192.44,57.114 1189.52,74.525 1179.89,87.303C1178.53,89.12 1176.91,90.742 1175.42,92.461L95.463,1179.03C90.917,1183.02 89.937,1184.29 84.638,1187.29C70.74,1195.16 53.073,1195.8 38.664,1189C24.254,1182.2 13.52,1168.19 10.753,1152.43C8.389,1138.96 11.841,1124.61 20.068,1113.69C21.437,1111.87 23.047,1110.25 24.537,1108.53L1104.5,21.966C1106.21,20.466 1107.82,18.845 1109.63,17.465C1115.06,13.319 1121.34,10.31 1127.98,8.671C1133.89,7.211 1135.47,7.462 1141.52,7.237C1143.78,7.463 1146.04,7.689 1148.31,7.915Z"/>
    </g>
    <g transform="matrix(6.12323e-17,1,-1,6.12323e-17,1200.42,0.503249)">
        <path d="M1148.31,7.915C1150.52,8.446 1152.77,8.829 1154.94,9.51C1170.18,14.296 1182.71,26.77 1187.57,41.942C1192.44,57.114 1189.52,74.525 1179.89,87.303C1178.53,89.12 1176.91,90.742 1175.42,92.461L95.463,1179.03C90.917,1183.02 89.937,1184.29 84.638,1187.29C70.74,1195.16 53.073,1195.8 38.664,1189C24.254,1182.2 13.52,1168.19 10.753,1152.43C8.389,1138.96 11.841,1124.61 20.068,1113.69C21.437,1111.87 23.047,1110.25 24.537,1108.53L1104.5,21.966C1106.21,20.466 1107.82,18.845 1109.63,17.465C1115.06,13.319 1121.34,10.31 1127.98,8.671C1133.89,7.211 1135.47,7.462 1141.52,7.237C1143.78,7.463 1146.04,7.689 1148.31,7.915Z"/>
    </g>
</svg>
