<?xml version="1.0" encoding="UTF-8" standalone="no"?>
<!DOCTYPE svg PUBLIC "-//W3C//DTD SVG 1.1//EN" "http://www.w3.org/Graphics/SVG/1.1/DTD/svg11.dtd">
<svg width="100%" height="100%" viewBox="0 0 1200 1200" version="1.1" xmlns="http://www.w3.org/2000/svg" xmlns:xlink="http://www.w3.org/1999/xlink" xml:space="preserve" xmlns:serif="http://www.serif.com/" style="fill-rule:evenodd;clip-rule:evenodd;stroke-linejoin:round;stroke-miterlimit:2;">
    <g transform="matrix(701.844,0,0,709.302,224.012,853.322)">
        <path d="M0.326,-0.612C0.347,-0.591 0.357,-0.565 0.357,-0.536C0.357,-0.506 0.347,-0.481 0.326,-0.46C0.305,-0.439 0.28,-0.429 0.25,-0.429C0.22,-0.429 0.195,-0.439 0.174,-0.46C0.153,-0.481 0.143,-0.506 0.143,-0.536C0.143,-0.565 0.153,-0.591 0.174,-0.612C0.195,-0.632 0.22,-0.643 0.25,-0.643C0.28,-0.643 0.305,-0.632 0.326,-0.612ZM0.929,-0.321L0.929,-0.071L0.143,-0.071L0.143,-0.179L0.321,-0.357L0.411,-0.268L0.696,-0.554L0.929,-0.321ZM0.982,-0.714L0.089,-0.714C0.084,-0.714 0.08,-0.713 0.077,-0.709C0.073,-0.705 0.071,-0.701 0.071,-0.696L0.071,-0.018C0.071,-0.013 0.073,-0.009 0.077,-0.005C0.08,-0.002 0.084,0 0.089,0L0.982,0C0.987,0 0.991,-0.002 0.995,-0.005C0.998,-0.009 1,-0.013 1,-0.018L1,-0.696C1,-0.701 0.998,-0.705 0.995,-0.709C0.991,-0.713 0.987,-0.714 0.982,-0.714ZM1.071,-0.696L1.071,-0.018C1.071,0.007 1.063,0.028 1.045,0.045C1.028,0.063 1.007,0.071 0.982,0.071L0.089,0.071C0.065,0.071 0.044,0.063 0.026,0.045C0.009,0.028 0,0.007 0,-0.018L0,-0.696C0,-0.721 0.009,-0.742 0.026,-0.759C0.044,-0.777 0.065,-0.786 0.089,-0.786L0.982,-0.786C1.007,-0.786 1.028,-0.777 1.045,-0.759C1.063,-0.742 1.071,-0.721 1.071,-0.696Z" style="fill-rule:nonzero;"/>
    </g>
    <g transform="matrix(0.465102,0.469043,-0.470676,0.46672,604.354,569.497)">
        <path d="M1148.31,7.915C1150.52,8.446 1152.77,8.829 1154.94,9.51C1170.18,14.296 1182.71,26.77 1187.57,41.942C1192.44,57.114 1189.52,74.525 1179.89,87.303C1178.53,89.12 1176.91,90.742 1175.42,92.461L95.463,1179.03C90.917,1183.02 89.937,1184.29 84.638,1187.29C70.74,1195.16 53.073,1195.8 38.664,1189C24.254,1182.2 13.52,1168.19 10.753,1152.43C8.389,1138.96 11.841,1124.61 20.068,1113.69C21.437,1111.87 23.047,1110.25 24.537,1108.53L1104.5,21.966C1106.21,20.466 1107.82,18.845 1109.63,17.465C1115.06,13.319 1121.34,10.31 1127.98,8.671C1133.89,7.211 1135.47,7.462 1141.52,7.237C1143.78,7.463 1146.04,7.689 1148.31,7.915Z"/>
    </g>
    <g transform="matrix(0.465102,0.469043,-0.470676,0.46672,603.476,438.115)">
        <path d="M1148.31,7.915C1150.52,8.446 1152.77,8.829 1154.94,9.51C1170.18,14.296 1182.71,26.77 1187.57,41.942C1192.44,57.114 1189.52,74.525 1179.89,87.303C1178.53,89.12 1176.91,90.742 1175.42,92.461L95.463,1179.03C90.917,1183.02 89.937,1184.29 84.638,1187.29C70.74,1195.16 53.073,1195.8 38.664,1189C24.254,1182.2 13.52,1168.19 10.753,1152.43C8.389,1138.96 11.841,1124.61 20.068,1113.69C21.437,1111.87 23.047,1110.25 24.537,1108.53L1104.5,21.966C1106.21,20.466 1107.82,18.845 1109.63,17.465C1115.06,13.319 1121.34,10.31 1127.98,8.671C1133.89,7.211 1135.47,7.462 1141.52,7.237C1143.78,7.463 1146.04,7.689 1148.31,7.915Z"/>
    </g>
    <g transform="matrix(0.465102,0.469043,-0.470676,0.46672,604.348,-350.191)">
        <path d="M1148.31,7.915C1150.52,8.446 1152.77,8.829 1154.94,9.51C1170.18,14.296 1182.71,26.77 1187.57,41.942C1192.44,57.114 1189.52,74.525 1179.89,87.303C1178.53,89.12 1176.91,90.742 1175.42,92.461L95.463,1179.03C90.917,1183.02 89.937,1184.29 84.638,1187.29C70.74,1195.16 53.073,1195.8 38.664,1189C24.254,1182.2 13.52,1168.19 10.753,1152.43C8.389,1138.96 11.841,1124.61 20.068,1113.69C21.437,1111.87 23.047,1110.25 24.537,1108.53L1104.5,21.966C1106.21,20.466 1107.82,18.845 1109.63,17.465C1115.06,13.319 1121.34,10.31 1127.98,8.671C1133.89,7.211 1135.47,7.462 1141.52,7.237C1143.78,7.463 1146.04,7.689 1148.31,7.915Z"/>
    </g>
    <g transform="matrix(0.465102,0.469043,-0.470676,0.46672,604.348,-486.635)">
        <path d="M1148.31,7.915C1150.52,8.446 1152.77,8.829 1154.94,9.51C1170.18,14.296 1182.71,26.77 1187.57,41.942C1192.44,57.114 1189.52,74.525 1179.89,87.303C1178.53,89.12 1176.91,90.742 1175.42,92.461L95.463,1179.03C90.917,1183.02 89.937,1184.29 84.638,1187.29C70.74,1195.16 53.073,1195.8 38.664,1189C24.254,1182.2 13.52,1168.19 10.753,1152.43C8.389,1138.96 11.841,1124.61 20.068,1113.69C21.437,1111.87 23.047,1110.25 24.537,1108.53L1104.5,21.966C1106.21,20.466 1107.82,18.845 1109.63,17.465C1115.06,13.319 1121.34,10.31 1127.98,8.671C1133.89,7.211 1135.47,7.462 1141.52,7.237C1143.78,7.463 1146.04,7.689 1148.31,7.915Z"/>
    </g>
</svg>
