<?xml version="1.0" encoding="UTF-8" standalone="no"?>
<!DOCTYPE svg PUBLIC "-//W3C//DTD SVG 1.1//EN" "http://www.w3.org/Graphics/SVG/1.1/DTD/svg11.dtd">
<svg width="100%" height="100%" viewBox="0 0 1200 1200" version="1.1" xmlns="http://www.w3.org/2000/svg" xmlns:xlink="http://www.w3.org/1999/xlink" xml:space="preserve" xmlns:serif="http://www.serif.com/" style="fill-rule:evenodd;clip-rule:evenodd;stroke-linejoin:round;stroke-miterlimit:2;">
    <path d="M1129.01,171.001C1149.17,171.198 1169.01,180.256 1182.41,195.35C1194.2,208.642 1200.84,226.442 1201,244.04C1201.72,481.873 1201,719.708 1201,957.542C1200.93,981.978 1188.21,1005.86 1167.89,1019.21C1156.44,1026.74 1142.93,1030.87 1129.01,1031C777.143,1032.17 425.275,1031 73.409,1031C44.19,1030.9 16.299,1011.59 5.791,983.807C2.673,975.564 1.081,966.745 0.999,957.963C0.262,720.129 0.998,482.293 0.998,244.457C1.072,220.439 13.458,196.709 33.373,183.274C44.983,175.441 58.8,171.14 72.99,171.001C424.994,169.866 777.004,169.867 1129.01,171.001ZM73.507,231C66.825,231.022 61.11,237.188 60.999,244.313C58.792,482.126 57.319,719.987 61.001,957.781C61.146,964.464 66.433,970.933 73.378,971C425.175,972.173 777.023,976.724 1128.78,970.998C1135.37,970.847 1140.93,964.649 1141,957.595C1141.72,719.805 1144.73,481.985 1141,244.224C1140.85,237.511 1135.53,231.068 1128.62,231C776.917,229.867 425.211,231 73.507,231Z"/>
    <path d="M606.319,185.975C608.462,187.1 610.635,188.256 612.228,190.053C614.62,192.754 615.556,196.341 616,200L616,1000C615.265,1006.05 612.099,1011.83 606.319,1014.02C598.348,1017.05 588.482,1011.89 586.436,1003.59C586.147,1002.42 586.145,1001.2 586,1000L586,200C586.292,197.597 586.602,195.155 587.718,193.029C589.418,189.791 592.327,187.247 595.681,185.975C598.723,184.821 599.625,185.109 602.808,185.109C603.978,185.398 605.149,185.686 606.319,185.975Z"/>
    <path d="M306.319,185.975C308.462,187.1 310.635,188.256 312.228,190.053C314.62,192.754 315.556,196.341 316,200L316,1000C315.265,1006.05 312.099,1011.83 306.319,1014.02C298.348,1017.05 288.482,1011.89 286.436,1003.59C286.147,1002.42 286.145,1001.2 286,1000L286,200C286.384,196.841 286.206,195.91 287.718,193.029C289.938,188.799 294.386,185.693 299.192,185.109C301.576,184.82 303.969,185.396 306.319,185.975Z"/>
    <path d="M906.319,185.975C908.462,187.1 910.635,188.256 912.228,190.053C914.62,192.754 915.556,196.341 916,200L916,1000C915.556,1003.66 914.62,1007.25 912.228,1009.95C906.618,1016.28 895.607,1016.53 889.772,1009.95C887.38,1007.25 886.444,1003.66 886,1000L886,200C886.292,197.597 886.602,195.155 887.718,193.029C889.418,189.791 892.327,187.247 895.681,185.975C898.723,184.821 899.625,185.109 902.808,185.109C903.978,185.398 905.149,185.686 906.319,185.975Z"/>
</svg>
