<?xml version="1.0" encoding="UTF-8" standalone="no"?>
<!DOCTYPE svg PUBLIC "-//W3C//DTD SVG 1.1//EN" "http://www.w3.org/Graphics/SVG/1.1/DTD/svg11.dtd">
<svg width="100%" height="100%" viewBox="0 0 1200 1200" version="1.1" xmlns="http://www.w3.org/2000/svg" xmlns:xlink="http://www.w3.org/1999/xlink" xml:space="preserve" xmlns:serif="http://www.serif.com/" style="fill-rule:evenodd;clip-rule:evenodd;stroke-linejoin:round;stroke-miterlimit:2;">
    <g transform="matrix(0.782342,0,0,0.801202,129.565,116.503)">
        <path d="M1205.18,-26.154C1209.59,-24.814 1210.88,-24.775 1214.76,-22.173C1220.57,-18.281 1224.7,-12.072 1226.06,-5.202C1226.4,-3.493 1226.4,-1.734 1226.57,0L1226.57,1200C1226.12,1204.59 1226.34,1205.88 1224.55,1210.2C1221.88,1216.68 1216.62,1221.96 1210.17,1224.64C1205.86,1226.43 1204.58,1226.21 1200,1226.67L0,1226.67C-4.578,1226.21 -5.856,1226.43 -10.169,1224.64C-16.617,1221.96 -21.879,1216.68 -24.55,1210.2C-26.337,1205.88 -26.122,1204.59 -26.573,1200L-26.573,0C-26.122,-4.594 -26.337,-5.877 -24.55,-10.205C-21.879,-16.676 -16.617,-21.957 -10.169,-24.637C-5.856,-26.429 -4.578,-26.214 0,-26.667L1200,-26.667C1201.73,-26.496 1203.46,-26.325 1205.18,-26.154ZM26.573,26.667L26.573,1173.33L1173.43,1173.33L1173.43,26.667L26.573,26.667Z" style="fill:rgb(34,34,34);"/>
    </g>
    <g transform="matrix(0.740515,0,0,0.745631,156.072,152.85)">
        <path d="M237.283,1083.78C238.459,1084.19 239.689,1084.47 240.812,1085.01C250.86,1089.83 253.437,1105.49 243.977,1113.01C242.016,1114.57 239.728,1115.66 237.283,1116.22C236.068,1116.5 234.806,1116.5 233.568,1116.64L166.784,1116.64C165.545,1116.5 164.284,1116.5 163.069,1116.22C155.783,1114.56 150.088,1107.62 150.088,1100C150.088,1092.48 155.725,1085.45 163.069,1083.78C164.284,1083.5 165.545,1083.5 166.784,1083.36L233.568,1083.36C234.806,1083.5 236.044,1083.64 237.283,1083.78ZM103.715,1017.23C107.278,1018.47 110.748,1020.2 113.053,1023.08C114.617,1025.03 115.719,1027.31 116.277,1029.75C116.555,1030.96 116.556,1032.22 116.696,1033.45L116.696,1100C116.556,1101.23 116.555,1102.49 116.277,1103.7C114.6,1111.03 107.553,1116.64 100,1116.64C92.49,1116.64 85.404,1111.04 83.723,1103.7C83.445,1102.49 83.444,1101.23 83.304,1100L83.304,1033.45C83.727,1029.71 84.641,1025.96 86.947,1023.08C88.51,1021.12 90.496,1019.55 92.756,1018.46C95.782,1017.01 96.726,1017.18 100,1016.81C101.238,1016.95 102.477,1017.09 103.715,1017.23ZM370.851,1083.78C372.027,1084.19 373.257,1084.47 374.379,1085.01C384.428,1089.83 387.005,1105.49 377.545,1113.01C375.584,1114.57 373.296,1115.66 370.851,1116.22C369.636,1116.5 368.374,1116.5 367.135,1116.64L300.351,1116.64C299.113,1116.5 297.851,1116.5 296.636,1116.22C286.883,1114 280.803,1102.11 285.309,1092.78C287.486,1088.28 291.746,1084.89 296.636,1083.78C297.851,1083.5 299.113,1083.5 300.351,1083.36L367.135,1083.36C368.374,1083.5 369.612,1083.64 370.851,1083.78ZM504.418,1083.78C505.594,1084.19 506.824,1084.47 507.947,1085.01C517.996,1089.83 520.572,1105.49 511.113,1113.01C509.152,1114.57 506.864,1115.66 504.418,1116.22C503.203,1116.5 501.941,1116.5 500.703,1116.64L433.919,1116.64C432.681,1116.5 431.419,1116.5 430.204,1116.22C418.373,1113.53 412.437,1095.79 423.509,1086.99C425.47,1085.43 427.759,1084.34 430.204,1083.78C431.419,1083.5 432.681,1083.5 433.919,1083.36L500.703,1083.36C501.941,1083.5 503.18,1083.64 504.418,1083.78ZM637.986,1083.78C639.162,1084.19 640.392,1084.47 641.515,1085.01C651.478,1089.79 654.327,1105.34 644.68,1113.01C642.719,1114.57 640.431,1115.66 637.986,1116.22C636.771,1116.5 635.509,1116.5 634.271,1116.64L567.487,1116.64C566.248,1116.5 564.987,1116.5 563.772,1116.22C554.211,1114.05 547.823,1102.34 552.444,1092.78C554.621,1088.28 558.881,1084.89 563.772,1083.78C564.987,1083.5 566.248,1083.5 567.487,1083.36L634.271,1083.36C635.509,1083.5 636.747,1083.64 637.986,1083.78ZM771.554,1083.78C772.73,1084.19 773.96,1084.47 775.082,1085.01C785.046,1089.79 787.895,1105.34 778.248,1113.01C776.287,1114.57 773.999,1115.66 771.554,1116.22C770.339,1116.5 769.077,1116.5 767.838,1116.64L701.054,1116.64C699.816,1116.5 698.554,1116.5 697.339,1116.22C687.778,1114.05 681.39,1102.34 686.012,1092.78C688.189,1088.28 692.449,1084.89 697.339,1083.78C698.554,1083.5 699.816,1083.5 701.054,1083.36L767.838,1083.36C769.077,1083.5 770.315,1083.64 771.554,1083.78ZM905.121,1083.78C906.297,1084.19 907.527,1084.47 908.65,1085.01C918.614,1089.79 921.463,1105.34 911.816,1113.01C909.855,1114.57 907.567,1115.66 905.121,1116.22C903.906,1116.5 902.644,1116.5 901.406,1116.64L834.622,1116.64C833.384,1116.5 832.122,1116.5 830.907,1116.22C821.346,1114.05 814.958,1102.34 819.58,1092.78C821.756,1088.28 826.016,1084.89 830.907,1083.78C832.122,1083.5 833.384,1083.5 834.622,1083.36L901.406,1083.36C902.644,1083.5 903.883,1083.64 905.121,1083.78ZM1038.69,1083.78C1039.87,1084.19 1041.1,1084.47 1042.22,1085.01C1052.11,1089.76 1055.13,1105.27 1045.38,1113.01C1043.42,1114.57 1041.13,1115.66 1038.69,1116.22C1037.47,1116.5 1036.21,1116.5 1034.97,1116.64L968.19,1116.64C966.951,1116.5 965.69,1116.5 964.475,1116.22C954.914,1114.05 948.526,1102.34 953.147,1092.78C955.324,1088.28 959.584,1084.89 964.475,1083.78C965.69,1083.5 966.951,1083.5 968.19,1083.36L1034.97,1083.36C1036.21,1083.5 1037.45,1083.64 1038.69,1083.78ZM1103.71,1015.48C1106.08,1016.3 1108.47,1017.15 1110.41,1018.69C1113.36,1021.03 1115.45,1024.38 1116.28,1028C1116.56,1029.21 1116.56,1030.46 1116.7,1031.7L1116.7,1098.25C1116.56,1099.48 1116.56,1100.74 1116.28,1101.95C1114.05,1111.67 1102.11,1117.73 1092.76,1113.24C1088.24,1111.07 1084.84,1106.82 1083.72,1101.95C1083.44,1100.74 1083.44,1099.48 1083.3,1098.25L1083.3,1031.7C1083.73,1027.96 1084.64,1024.21 1086.95,1021.33C1088.51,1019.37 1090.5,1017.79 1092.76,1016.71C1095.78,1015.26 1096.73,1015.43 1100,1015.06C1101.24,1015.2 1102.48,1015.34 1103.71,1015.48ZM103.715,884.13C107.278,885.372 110.748,887.096 113.053,889.977C114.617,891.931 115.719,894.211 116.277,896.648C116.555,897.859 116.556,899.116 116.696,900.35L116.696,966.9C116.556,968.134 116.555,969.392 116.277,970.602C114.614,977.863 107.646,983.538 100,983.538C92.45,983.538 85.399,977.92 83.723,970.602C83.445,969.392 83.444,968.134 83.304,966.9L83.304,900.35C83.584,897.872 83.88,895.36 84.957,893.132C86.594,889.745 89.404,886.969 92.756,885.36C95.782,883.908 96.726,884.08 100,883.713C101.238,883.852 102.477,883.991 103.715,884.13ZM1103.71,882.379C1107.28,883.621 1110.75,885.345 1113.05,888.226C1114.62,890.18 1115.72,892.46 1116.28,894.897C1116.56,896.107 1116.56,897.365 1116.7,898.599L1116.7,965.149C1116.56,966.383 1116.56,967.64 1116.28,968.851C1114.07,978.51 1102.27,984.705 1092.76,980.139C1088.24,977.97 1084.84,973.725 1083.72,968.851C1083.44,967.64 1083.44,966.383 1083.3,965.149L1083.3,898.599C1083.67,895.336 1083.5,894.396 1084.96,891.38C1087.12,886.914 1091.38,883.493 1096.29,882.379C1098.7,881.828 1101.23,882.099 1103.71,882.379ZM103.715,751.03C106.077,751.854 108.469,752.7 110.41,754.243C113.359,756.586 115.45,759.934 116.277,763.548C116.555,764.759 116.556,766.016 116.696,767.25L116.696,833.8C116.556,835.034 116.555,836.292 116.277,837.503C114.35,845.915 105.153,852.038 96.285,850.021C90.156,848.627 85.118,843.595 83.723,837.503C83.445,836.292 83.444,835.034 83.304,833.8L83.304,767.25C83.444,766.016 83.445,764.759 83.723,763.548C84.843,758.656 88.283,754.407 92.756,752.261C95.782,750.808 96.726,750.981 100,750.613C101.238,750.752 102.477,750.891 103.715,751.03ZM1103.71,749.279C1106.08,750.102 1108.47,750.949 1110.41,752.491C1113.36,754.835 1115.45,758.183 1116.28,761.797C1116.56,763.008 1116.56,764.265 1116.7,765.499L1116.7,832.049C1116.56,833.283 1116.56,834.54 1116.28,835.751C1114.1,845.279 1102.35,851.644 1092.76,847.039C1088.24,844.87 1084.84,840.625 1083.72,835.751C1083.44,834.54 1083.44,833.283 1083.3,832.049L1083.3,765.499C1083.67,762.236 1083.5,761.296 1084.96,758.28C1087.12,753.814 1091.38,750.393 1096.29,749.279C1098.7,748.728 1101.23,749 1103.71,749.279ZM103.715,617.93C106.077,618.754 108.469,619.6 110.41,621.143C113.359,623.486 115.45,626.834 116.277,630.448C116.555,631.659 116.556,632.917 116.696,634.151L116.696,700.701C116.556,701.935 116.555,703.192 116.277,704.403C114.35,712.815 105.153,718.938 96.285,716.921C90.156,715.527 85.118,710.495 83.723,704.403C83.445,703.192 83.444,701.935 83.304,700.701L83.304,634.151C83.444,632.917 83.445,631.659 83.723,630.448C84.843,625.556 88.283,621.307 92.756,619.161C95.782,617.709 96.726,617.881 100,617.513C101.238,617.652 102.477,617.791 103.715,617.93ZM1103.71,616.179C1107.28,617.421 1110.75,619.145 1113.05,622.026C1114.62,623.98 1115.72,626.26 1116.28,628.697C1116.56,629.908 1116.56,631.165 1116.7,632.399L1116.7,698.949C1116.56,700.183 1116.56,701.441 1116.28,702.651C1114.1,712.179 1102.35,718.544 1092.76,713.939C1088.24,711.77 1084.84,707.525 1083.72,702.651C1083.44,701.441 1083.44,700.183 1083.3,698.949L1083.3,632.399C1083.67,629.136 1083.5,628.196 1084.96,625.181C1087.12,620.714 1091.38,617.294 1096.29,616.179C1098.7,615.628 1101.23,615.9 1103.71,616.179ZM103.715,484.83C106.077,485.654 108.469,486.501 110.41,488.043C113.359,490.387 115.45,493.734 116.277,497.349C116.555,498.559 116.556,499.817 116.696,501.051L116.696,567.601C116.556,568.835 116.555,570.092 116.277,571.303C114.35,579.716 105.153,585.838 96.285,583.821C90.156,582.427 85.118,577.395 83.723,571.303C83.445,570.092 83.444,568.835 83.304,567.601L83.304,501.051C83.673,497.788 83.5,496.847 84.957,493.832C87.107,489.385 91.405,485.94 96.285,484.83C98.705,484.28 101.228,484.551 103.715,484.83ZM1103.71,483.079C1107.28,484.321 1110.75,486.045 1113.05,488.926C1114.62,490.88 1115.72,493.16 1116.28,495.597C1116.56,496.808 1116.56,498.065 1116.7,499.299L1116.7,565.849C1116.56,567.083 1116.56,568.341 1116.28,569.552C1114.1,579.079 1102.35,585.445 1092.76,580.839C1088.24,578.67 1084.84,574.425 1083.72,569.552C1083.44,568.341 1083.44,567.083 1083.3,565.849L1083.3,499.299C1083.67,496.037 1083.5,495.096 1084.96,492.081C1087.11,487.633 1091.4,484.189 1096.29,483.079C1098.7,482.529 1101.23,482.8 1103.71,483.079ZM103.715,351.731C106.077,352.554 108.469,353.401 110.41,354.943C113.359,357.287 115.45,360.635 116.277,364.249C116.555,365.46 116.556,366.717 116.696,367.951L116.696,434.501C116.556,435.735 116.555,436.992 116.277,438.203C114.6,445.527 107.553,451.138 100,451.138C92.49,451.138 85.404,445.543 83.723,438.203C83.445,436.992 83.444,435.735 83.304,434.501L83.304,367.951C83.584,365.473 83.88,362.961 84.957,360.732C86.594,357.346 89.404,354.57 92.756,352.961C95.782,351.509 96.726,351.681 100,351.313C101.238,351.453 102.477,351.592 103.715,351.731ZM1103.71,349.979C1107.28,351.222 1110.75,352.945 1113.05,355.826C1114.62,357.781 1115.72,360.061 1116.28,362.497C1116.56,363.708 1116.56,364.966 1116.7,366.2L1116.7,432.75C1116.56,433.984 1116.56,435.241 1116.28,436.452C1113.58,448.241 1095.78,454.156 1086.95,443.123C1085.38,441.169 1084.28,438.889 1083.72,436.452C1083.44,435.241 1083.44,433.984 1083.3,432.75L1083.3,366.2C1083.67,362.937 1083.5,361.996 1084.96,358.981C1087.11,354.534 1091.4,351.089 1096.29,349.979C1098.7,349.429 1101.23,349.7 1103.71,349.979ZM103.715,218.631C107.278,219.873 110.748,221.597 113.053,224.478C114.617,226.432 115.719,228.712 116.277,231.149C116.555,232.36 116.556,233.617 116.696,234.851L116.696,301.401C116.556,302.635 116.555,303.893 116.277,305.103C114.614,312.363 107.646,318.039 100,318.039C92.45,318.039 85.399,312.421 83.723,305.103C83.445,303.893 83.444,302.635 83.304,301.401L83.304,234.851C83.673,231.588 83.5,230.648 84.957,227.632C87.142,223.111 91.444,219.732 96.285,218.631C98.705,218.08 101.228,218.352 103.715,218.631ZM1103.71,216.879C1106.08,217.703 1108.47,218.55 1110.41,220.092C1113.36,222.436 1115.45,225.784 1116.28,229.398C1116.56,230.608 1116.56,231.866 1116.7,233.1L1116.7,299.65C1116.56,300.884 1116.56,302.141 1116.28,303.352C1113.58,315.141 1095.78,321.056 1086.95,310.023C1085.38,308.069 1084.28,305.789 1083.72,303.352C1083.44,302.141 1083.44,300.884 1083.3,299.65L1083.3,233.1C1083.58,230.622 1083.88,228.11 1084.96,225.881C1086.59,222.495 1089.4,219.718 1092.76,218.11C1095.78,216.658 1096.73,216.83 1100,216.462C1101.24,216.601 1102.48,216.74 1103.71,216.879ZM103.715,85.531C104.892,85.941 106.121,86.223 107.244,86.761C111.781,88.939 115.173,93.225 116.277,98.049C116.555,99.26 116.556,100.517 116.696,101.751L116.696,168.301C116.556,169.535 116.555,170.793 116.277,172.003C114.051,181.723 102.113,187.781 92.756,183.291C88.236,181.122 84.839,176.877 83.723,172.003C83.445,170.793 83.444,169.535 83.304,168.301L83.304,101.751C83.444,100.517 83.445,99.26 83.723,98.049C84.843,93.157 88.283,88.908 92.756,86.761C95.782,85.309 96.726,85.481 100,85.114C101.238,85.253 102.477,85.392 103.715,85.531ZM1103.71,83.78C1106.08,84.603 1108.47,85.45 1110.41,86.992C1113.36,89.336 1115.45,92.684 1116.28,96.298C1116.56,97.509 1116.56,98.766 1116.7,100L1116.7,166.55C1116.56,167.784 1116.56,169.041 1116.28,170.252C1114.61,177.512 1107.65,183.187 1100,183.187C1092.45,183.187 1085.4,177.57 1083.72,170.252C1083.44,169.041 1083.44,167.784 1083.3,166.55L1083.3,100C1083.58,97.522 1083.88,95.01 1084.96,92.781C1086.59,89.395 1089.4,86.619 1092.76,85.01C1095.78,83.558 1096.73,83.73 1100,83.363C1101.24,83.502 1102.48,83.641 1103.71,83.78ZM235.525,83.78C236.702,84.19 237.931,84.471 239.054,85.01C248.872,89.721 251.963,105.265 242.22,113.008C240.259,114.566 237.971,115.664 235.525,116.22C234.31,116.497 233.049,116.498 231.81,116.637L165.026,116.637C163.788,116.498 162.526,116.497 161.311,116.22C151.558,114.002 145.478,102.105 149.984,92.781C152.16,88.277 156.42,84.892 161.311,83.78C162.526,83.503 163.788,83.502 165.026,83.363L231.81,83.363C233.049,83.502 234.287,83.641 235.525,83.78ZM369.093,83.78C370.269,84.19 371.499,84.471 372.622,85.01C382.671,89.832 385.247,105.49 375.788,113.008C373.827,114.566 371.538,115.664 369.093,116.22C367.878,116.497 366.616,116.498 365.378,116.637L298.594,116.637C297.356,116.498 296.094,116.497 294.879,116.22C286.437,114.3 280.292,105.135 282.317,96.298C283.716,90.191 288.765,85.17 294.879,83.78C296.094,83.503 297.356,83.502 298.594,83.363L365.378,83.363C366.616,83.502 367.855,83.641 369.093,83.78ZM502.661,83.78C503.837,84.19 505.067,84.471 506.19,85.01C516.238,89.832 518.815,105.49 509.355,113.008C507.394,114.566 505.106,115.664 502.661,116.22C501.446,116.497 500.184,116.498 498.946,116.637L432.162,116.637C430.923,116.498 429.661,116.497 428.446,116.22C420.004,114.3 413.86,105.135 415.884,96.298C417.283,90.191 422.333,85.17 428.446,83.78C429.661,83.503 430.923,83.502 432.162,83.363L498.946,83.363C500.184,83.502 501.422,83.641 502.661,83.78ZM636.228,83.78C637.405,84.19 638.634,84.471 639.757,85.01C649.721,89.792 652.57,105.341 642.923,113.008C640.962,114.566 638.674,115.664 636.228,116.22C635.013,116.497 633.752,116.498 632.513,116.637L565.729,116.637C564.491,116.498 563.229,116.497 562.014,116.22C553.572,114.3 547.428,105.135 549.452,96.298C550.851,90.191 555.901,85.17 562.014,83.78C563.229,83.503 564.491,83.502 565.729,83.363L632.513,83.363C633.752,83.502 634.99,83.641 636.228,83.78ZM769.796,83.78C770.972,84.19 772.202,84.471 773.325,85.01C783.289,89.792 786.138,105.341 776.491,113.008C774.53,114.566 772.241,115.664 769.796,116.22C768.581,116.497 767.319,116.498 766.081,116.637L699.297,116.637C698.059,116.498 696.797,116.497 695.582,116.22C688.296,114.563 682.601,107.619 682.601,100C682.601,92.477 688.238,85.45 695.582,83.78C696.797,83.503 698.059,83.502 699.297,83.363L766.081,83.363C767.319,83.502 768.558,83.641 769.796,83.78ZM903.364,83.78C904.54,84.19 905.77,84.471 906.893,85.01C916.856,89.792 919.705,105.341 910.058,113.008C908.097,114.566 905.809,115.664 903.364,116.22C902.149,116.497 900.887,116.498 899.649,116.637L832.865,116.637C831.626,116.498 830.364,116.497 829.149,116.22C817.319,113.529 811.383,95.791 822.455,86.992C824.416,85.434 826.704,84.336 829.149,83.78C830.364,83.503 831.626,83.502 832.865,83.363L899.649,83.363C900.887,83.502 902.125,83.641 903.364,83.78ZM1036.93,83.78C1038.11,84.19 1039.34,84.471 1040.46,85.01C1050.51,89.832 1053.09,105.49 1043.63,113.008C1041.66,114.566 1039.38,115.664 1036.93,116.22C1035.72,116.497 1034.45,116.498 1033.22,116.637L966.432,116.637C965.194,116.498 963.932,116.497 962.717,116.22C950.886,113.529 944.95,95.791 956.023,86.992C957.984,85.434 960.272,84.336 962.717,83.78C963.932,83.503 965.194,83.502 966.432,83.363L1033.22,83.363C1034.45,83.502 1035.69,83.641 1036.93,83.78Z"/>
    </g>
    <g transform="matrix(1.14961,0,0,1.15429,-90.7668,-92.2253)">
        <path d="M237.283,1083.78C238.459,1084.19 239.689,1084.47 240.812,1085.01C250.86,1089.83 253.437,1105.49 243.977,1113.01C242.016,1114.57 239.728,1115.66 237.283,1116.22C236.068,1116.5 234.806,1116.5 233.568,1116.64L166.784,1116.64C165.545,1116.5 164.284,1116.5 163.069,1116.22C155.783,1114.56 150.088,1107.62 150.088,1100C150.088,1092.48 155.725,1085.45 163.069,1083.78C164.284,1083.5 165.545,1083.5 166.784,1083.36L233.568,1083.36C234.806,1083.5 236.044,1083.64 237.283,1083.78ZM103.715,1017.23C107.278,1018.47 110.748,1020.2 113.053,1023.08C114.617,1025.03 115.719,1027.31 116.277,1029.75C116.555,1030.96 116.556,1032.22 116.696,1033.45L116.696,1100C116.556,1101.23 116.555,1102.49 116.277,1103.7C114.6,1111.03 107.553,1116.64 100,1116.64C92.49,1116.64 85.404,1111.04 83.723,1103.7C83.445,1102.49 83.444,1101.23 83.304,1100L83.304,1033.45C83.727,1029.71 84.641,1025.96 86.947,1023.08C88.51,1021.12 90.496,1019.55 92.756,1018.46C95.782,1017.01 96.726,1017.18 100,1016.81C101.238,1016.95 102.477,1017.09 103.715,1017.23ZM370.851,1083.78C372.027,1084.19 373.257,1084.47 374.379,1085.01C384.428,1089.83 387.005,1105.49 377.545,1113.01C375.584,1114.57 373.296,1115.66 370.851,1116.22C369.636,1116.5 368.374,1116.5 367.135,1116.64L300.351,1116.64C299.113,1116.5 297.851,1116.5 296.636,1116.22C286.883,1114 280.803,1102.11 285.309,1092.78C287.486,1088.28 291.746,1084.89 296.636,1083.78C297.851,1083.5 299.113,1083.5 300.351,1083.36L367.135,1083.36C368.374,1083.5 369.612,1083.64 370.851,1083.78ZM504.418,1083.78C505.594,1084.19 506.824,1084.47 507.947,1085.01C517.996,1089.83 520.572,1105.49 511.113,1113.01C509.152,1114.57 506.864,1115.66 504.418,1116.22C503.203,1116.5 501.941,1116.5 500.703,1116.64L433.919,1116.64C432.681,1116.5 431.419,1116.5 430.204,1116.22C418.373,1113.53 412.437,1095.79 423.509,1086.99C425.47,1085.43 427.759,1084.34 430.204,1083.78C431.419,1083.5 432.681,1083.5 433.919,1083.36L500.703,1083.36C501.941,1083.5 503.18,1083.64 504.418,1083.78ZM637.986,1083.78C639.162,1084.19 640.392,1084.47 641.515,1085.01C651.478,1089.79 654.327,1105.34 644.68,1113.01C642.719,1114.57 640.431,1115.66 637.986,1116.22C636.771,1116.5 635.509,1116.5 634.271,1116.64L567.487,1116.64C566.248,1116.5 564.987,1116.5 563.772,1116.22C554.211,1114.05 547.823,1102.34 552.444,1092.78C554.621,1088.28 558.881,1084.89 563.772,1083.78C564.987,1083.5 566.248,1083.5 567.487,1083.36L634.271,1083.36C635.509,1083.5 636.747,1083.64 637.986,1083.78ZM771.554,1083.78C772.73,1084.19 773.96,1084.47 775.082,1085.01C785.046,1089.79 787.895,1105.34 778.248,1113.01C776.287,1114.57 773.999,1115.66 771.554,1116.22C770.339,1116.5 769.077,1116.5 767.838,1116.64L701.054,1116.64C699.816,1116.5 698.554,1116.5 697.339,1116.22C687.778,1114.05 681.39,1102.34 686.012,1092.78C688.189,1088.28 692.449,1084.89 697.339,1083.78C698.554,1083.5 699.816,1083.5 701.054,1083.36L767.838,1083.36C769.077,1083.5 770.315,1083.64 771.554,1083.78ZM905.121,1083.78C906.297,1084.19 907.527,1084.47 908.65,1085.01C918.614,1089.79 921.463,1105.34 911.816,1113.01C909.855,1114.57 907.567,1115.66 905.121,1116.22C903.906,1116.5 902.644,1116.5 901.406,1116.64L834.622,1116.64C833.384,1116.5 832.122,1116.5 830.907,1116.22C821.346,1114.05 814.958,1102.34 819.58,1092.78C821.756,1088.28 826.016,1084.89 830.907,1083.78C832.122,1083.5 833.384,1083.5 834.622,1083.36L901.406,1083.36C902.644,1083.5 903.883,1083.64 905.121,1083.78ZM1038.69,1083.78C1039.87,1084.19 1041.1,1084.47 1042.22,1085.01C1052.11,1089.76 1055.13,1105.27 1045.38,1113.01C1043.42,1114.57 1041.13,1115.66 1038.69,1116.22C1037.47,1116.5 1036.21,1116.5 1034.97,1116.64L968.19,1116.64C966.951,1116.5 965.69,1116.5 964.475,1116.22C954.914,1114.05 948.526,1102.34 953.147,1092.78C955.324,1088.28 959.584,1084.89 964.475,1083.78C965.69,1083.5 966.951,1083.5 968.19,1083.36L1034.97,1083.36C1036.21,1083.5 1037.45,1083.64 1038.69,1083.78ZM1103.71,1015.48C1106.08,1016.3 1108.47,1017.15 1110.41,1018.69C1113.36,1021.03 1115.45,1024.38 1116.28,1028C1116.56,1029.21 1116.56,1030.46 1116.7,1031.7L1116.7,1098.25C1116.56,1099.48 1116.56,1100.74 1116.28,1101.95C1114.05,1111.67 1102.11,1117.73 1092.76,1113.24C1088.24,1111.07 1084.84,1106.82 1083.72,1101.95C1083.44,1100.74 1083.44,1099.48 1083.3,1098.25L1083.3,1031.7C1083.73,1027.96 1084.64,1024.21 1086.95,1021.33C1088.51,1019.37 1090.5,1017.79 1092.76,1016.71C1095.78,1015.26 1096.73,1015.43 1100,1015.06C1101.24,1015.2 1102.48,1015.34 1103.71,1015.48ZM103.715,884.13C107.278,885.372 110.748,887.096 113.053,889.977C114.617,891.931 115.719,894.211 116.277,896.648C116.555,897.859 116.556,899.116 116.696,900.35L116.696,966.9C116.556,968.134 116.555,969.392 116.277,970.602C114.614,977.863 107.646,983.538 100,983.538C92.45,983.538 85.399,977.92 83.723,970.602C83.445,969.392 83.444,968.134 83.304,966.9L83.304,900.35C83.584,897.872 83.88,895.36 84.957,893.132C86.594,889.745 89.404,886.969 92.756,885.36C95.782,883.908 96.726,884.08 100,883.713C101.238,883.852 102.477,883.991 103.715,884.13ZM1103.71,882.379C1107.28,883.621 1110.75,885.345 1113.05,888.226C1114.62,890.18 1115.72,892.46 1116.28,894.897C1116.56,896.107 1116.56,897.365 1116.7,898.599L1116.7,965.149C1116.56,966.383 1116.56,967.64 1116.28,968.851C1114.07,978.51 1102.27,984.705 1092.76,980.139C1088.24,977.97 1084.84,973.725 1083.72,968.851C1083.44,967.64 1083.44,966.383 1083.3,965.149L1083.3,898.599C1083.67,895.336 1083.5,894.396 1084.96,891.38C1087.12,886.914 1091.38,883.493 1096.29,882.379C1098.7,881.828 1101.23,882.099 1103.71,882.379ZM103.715,751.03C106.077,751.854 108.469,752.7 110.41,754.243C113.359,756.586 115.45,759.934 116.277,763.548C116.555,764.759 116.556,766.016 116.696,767.25L116.696,833.8C116.556,835.034 116.555,836.292 116.277,837.503C114.35,845.915 105.153,852.038 96.285,850.021C90.156,848.627 85.118,843.595 83.723,837.503C83.445,836.292 83.444,835.034 83.304,833.8L83.304,767.25C83.444,766.016 83.445,764.759 83.723,763.548C84.843,758.656 88.283,754.407 92.756,752.261C95.782,750.808 96.726,750.981 100,750.613C101.238,750.752 102.477,750.891 103.715,751.03ZM1103.71,749.279C1106.08,750.102 1108.47,750.949 1110.41,752.491C1113.36,754.835 1115.45,758.183 1116.28,761.797C1116.56,763.008 1116.56,764.265 1116.7,765.499L1116.7,832.049C1116.56,833.283 1116.56,834.54 1116.28,835.751C1114.1,845.279 1102.35,851.644 1092.76,847.039C1088.24,844.87 1084.84,840.625 1083.72,835.751C1083.44,834.54 1083.44,833.283 1083.3,832.049L1083.3,765.499C1083.67,762.236 1083.5,761.296 1084.96,758.28C1087.12,753.814 1091.38,750.393 1096.29,749.279C1098.7,748.728 1101.23,749 1103.71,749.279ZM103.715,617.93C106.077,618.754 108.469,619.6 110.41,621.143C113.359,623.486 115.45,626.834 116.277,630.448C116.555,631.659 116.556,632.917 116.696,634.151L116.696,700.701C116.556,701.935 116.555,703.192 116.277,704.403C114.35,712.815 105.153,718.938 96.285,716.921C90.156,715.527 85.118,710.495 83.723,704.403C83.445,703.192 83.444,701.935 83.304,700.701L83.304,634.151C83.444,632.917 83.445,631.659 83.723,630.448C84.843,625.556 88.283,621.307 92.756,619.161C95.782,617.709 96.726,617.881 100,617.513C101.238,617.652 102.477,617.791 103.715,617.93ZM1103.71,616.179C1107.28,617.421 1110.75,619.145 1113.05,622.026C1114.62,623.98 1115.72,626.26 1116.28,628.697C1116.56,629.908 1116.56,631.165 1116.7,632.399L1116.7,698.949C1116.56,700.183 1116.56,701.441 1116.28,702.651C1114.1,712.179 1102.35,718.544 1092.76,713.939C1088.24,711.77 1084.84,707.525 1083.72,702.651C1083.44,701.441 1083.44,700.183 1083.3,698.949L1083.3,632.399C1083.67,629.136 1083.5,628.196 1084.96,625.181C1087.12,620.714 1091.38,617.294 1096.29,616.179C1098.7,615.628 1101.23,615.9 1103.71,616.179ZM103.715,484.83C106.077,485.654 108.469,486.501 110.41,488.043C113.359,490.387 115.45,493.734 116.277,497.349C116.555,498.559 116.556,499.817 116.696,501.051L116.696,567.601C116.556,568.835 116.555,570.092 116.277,571.303C114.35,579.716 105.153,585.838 96.285,583.821C90.156,582.427 85.118,577.395 83.723,571.303C83.445,570.092 83.444,568.835 83.304,567.601L83.304,501.051C83.673,497.788 83.5,496.847 84.957,493.832C87.107,489.385 91.405,485.94 96.285,484.83C98.705,484.28 101.228,484.551 103.715,484.83ZM1103.71,483.079C1107.28,484.321 1110.75,486.045 1113.05,488.926C1114.62,490.88 1115.72,493.16 1116.28,495.597C1116.56,496.808 1116.56,498.065 1116.7,499.299L1116.7,565.849C1116.56,567.083 1116.56,568.341 1116.28,569.552C1114.1,579.079 1102.35,585.445 1092.76,580.839C1088.24,578.67 1084.84,574.425 1083.72,569.552C1083.44,568.341 1083.44,567.083 1083.3,565.849L1083.3,499.299C1083.67,496.037 1083.5,495.096 1084.96,492.081C1087.11,487.633 1091.4,484.189 1096.29,483.079C1098.7,482.529 1101.23,482.8 1103.71,483.079ZM103.715,351.731C106.077,352.554 108.469,353.401 110.41,354.943C113.359,357.287 115.45,360.635 116.277,364.249C116.555,365.46 116.556,366.717 116.696,367.951L116.696,434.501C116.556,435.735 116.555,436.992 116.277,438.203C114.6,445.527 107.553,451.138 100,451.138C92.49,451.138 85.404,445.543 83.723,438.203C83.445,436.992 83.444,435.735 83.304,434.501L83.304,367.951C83.584,365.473 83.88,362.961 84.957,360.732C86.594,357.346 89.404,354.57 92.756,352.961C95.782,351.509 96.726,351.681 100,351.313C101.238,351.453 102.477,351.592 103.715,351.731ZM1103.71,349.979C1107.28,351.222 1110.75,352.945 1113.05,355.826C1114.62,357.781 1115.72,360.061 1116.28,362.497C1116.56,363.708 1116.56,364.966 1116.7,366.2L1116.7,432.75C1116.56,433.984 1116.56,435.241 1116.28,436.452C1113.58,448.241 1095.78,454.156 1086.95,443.123C1085.38,441.169 1084.28,438.889 1083.72,436.452C1083.44,435.241 1083.44,433.984 1083.3,432.75L1083.3,366.2C1083.67,362.937 1083.5,361.996 1084.96,358.981C1087.11,354.534 1091.4,351.089 1096.29,349.979C1098.7,349.429 1101.23,349.7 1103.71,349.979ZM103.715,218.631C107.278,219.873 110.748,221.597 113.053,224.478C114.617,226.432 115.719,228.712 116.277,231.149C116.555,232.36 116.556,233.617 116.696,234.851L116.696,301.401C116.556,302.635 116.555,303.893 116.277,305.103C114.614,312.363 107.646,318.039 100,318.039C92.45,318.039 85.399,312.421 83.723,305.103C83.445,303.893 83.444,302.635 83.304,301.401L83.304,234.851C83.673,231.588 83.5,230.648 84.957,227.632C87.142,223.111 91.444,219.732 96.285,218.631C98.705,218.08 101.228,218.352 103.715,218.631ZM1103.71,216.879C1106.08,217.703 1108.47,218.55 1110.41,220.092C1113.36,222.436 1115.45,225.784 1116.28,229.398C1116.56,230.608 1116.56,231.866 1116.7,233.1L1116.7,299.65C1116.56,300.884 1116.56,302.141 1116.28,303.352C1113.58,315.141 1095.78,321.056 1086.95,310.023C1085.38,308.069 1084.28,305.789 1083.72,303.352C1083.44,302.141 1083.44,300.884 1083.3,299.65L1083.3,233.1C1083.58,230.622 1083.88,228.11 1084.96,225.881C1086.59,222.495 1089.4,219.718 1092.76,218.11C1095.78,216.658 1096.73,216.83 1100,216.462C1101.24,216.601 1102.48,216.74 1103.71,216.879ZM103.715,85.531C104.892,85.941 106.121,86.223 107.244,86.761C111.781,88.939 115.173,93.225 116.277,98.049C116.555,99.26 116.556,100.517 116.696,101.751L116.696,168.301C116.556,169.535 116.555,170.793 116.277,172.003C114.051,181.723 102.113,187.781 92.756,183.291C88.236,181.122 84.839,176.877 83.723,172.003C83.445,170.793 83.444,169.535 83.304,168.301L83.304,101.751C83.444,100.517 83.445,99.26 83.723,98.049C84.843,93.157 88.283,88.908 92.756,86.761C95.782,85.309 96.726,85.481 100,85.114C101.238,85.253 102.477,85.392 103.715,85.531ZM1103.71,83.78C1106.08,84.603 1108.47,85.45 1110.41,86.992C1113.36,89.336 1115.45,92.684 1116.28,96.298C1116.56,97.509 1116.56,98.766 1116.7,100L1116.7,166.55C1116.56,167.784 1116.56,169.041 1116.28,170.252C1114.61,177.512 1107.65,183.187 1100,183.187C1092.45,183.187 1085.4,177.57 1083.72,170.252C1083.44,169.041 1083.44,167.784 1083.3,166.55L1083.3,100C1083.58,97.522 1083.88,95.01 1084.96,92.781C1086.59,89.395 1089.4,86.619 1092.76,85.01C1095.78,83.558 1096.73,83.73 1100,83.363C1101.24,83.502 1102.48,83.641 1103.71,83.78ZM235.525,83.78C236.702,84.19 237.931,84.471 239.054,85.01C248.872,89.721 251.963,105.265 242.22,113.008C240.259,114.566 237.971,115.664 235.525,116.22C234.31,116.497 233.049,116.498 231.81,116.637L165.026,116.637C163.788,116.498 162.526,116.497 161.311,116.22C151.558,114.002 145.478,102.105 149.984,92.781C152.16,88.277 156.42,84.892 161.311,83.78C162.526,83.503 163.788,83.502 165.026,83.363L231.81,83.363C233.049,83.502 234.287,83.641 235.525,83.78ZM369.093,83.78C370.269,84.19 371.499,84.471 372.622,85.01C382.671,89.832 385.247,105.49 375.788,113.008C373.827,114.566 371.538,115.664 369.093,116.22C367.878,116.497 366.616,116.498 365.378,116.637L298.594,116.637C297.356,116.498 296.094,116.497 294.879,116.22C286.437,114.3 280.292,105.135 282.317,96.298C283.716,90.191 288.765,85.17 294.879,83.78C296.094,83.503 297.356,83.502 298.594,83.363L365.378,83.363C366.616,83.502 367.855,83.641 369.093,83.78ZM502.661,83.78C503.837,84.19 505.067,84.471 506.19,85.01C516.238,89.832 518.815,105.49 509.355,113.008C507.394,114.566 505.106,115.664 502.661,116.22C501.446,116.497 500.184,116.498 498.946,116.637L432.162,116.637C430.923,116.498 429.661,116.497 428.446,116.22C420.004,114.3 413.86,105.135 415.884,96.298C417.283,90.191 422.333,85.17 428.446,83.78C429.661,83.503 430.923,83.502 432.162,83.363L498.946,83.363C500.184,83.502 501.422,83.641 502.661,83.78ZM636.228,83.78C637.405,84.19 638.634,84.471 639.757,85.01C649.721,89.792 652.57,105.341 642.923,113.008C640.962,114.566 638.674,115.664 636.228,116.22C635.013,116.497 633.752,116.498 632.513,116.637L565.729,116.637C564.491,116.498 563.229,116.497 562.014,116.22C553.572,114.3 547.428,105.135 549.452,96.298C550.851,90.191 555.901,85.17 562.014,83.78C563.229,83.503 564.491,83.502 565.729,83.363L632.513,83.363C633.752,83.502 634.99,83.641 636.228,83.78ZM769.796,83.78C770.972,84.19 772.202,84.471 773.325,85.01C783.289,89.792 786.138,105.341 776.491,113.008C774.53,114.566 772.241,115.664 769.796,116.22C768.581,116.497 767.319,116.498 766.081,116.637L699.297,116.637C698.059,116.498 696.797,116.497 695.582,116.22C688.296,114.563 682.601,107.619 682.601,100C682.601,92.477 688.238,85.45 695.582,83.78C696.797,83.503 698.059,83.502 699.297,83.363L766.081,83.363C767.319,83.502 768.558,83.641 769.796,83.78ZM903.364,83.78C904.54,84.19 905.77,84.471 906.893,85.01C916.856,89.792 919.705,105.341 910.058,113.008C908.097,114.566 905.809,115.664 903.364,116.22C902.149,116.497 900.887,116.498 899.649,116.637L832.865,116.637C831.626,116.498 830.364,116.497 829.149,116.22C817.319,113.529 811.383,95.791 822.455,86.992C824.416,85.434 826.704,84.336 829.149,83.78C830.364,83.503 831.626,83.502 832.865,83.363L899.649,83.363C900.887,83.502 902.125,83.641 903.364,83.78ZM1036.93,83.78C1038.11,84.19 1039.34,84.471 1040.46,85.01C1050.51,89.832 1053.09,105.49 1043.63,113.008C1041.66,114.566 1039.38,115.664 1036.93,116.22C1035.72,116.497 1034.45,116.498 1033.22,116.637L966.432,116.637C965.194,116.498 963.932,116.497 962.717,116.22C950.886,113.529 944.95,95.791 956.023,86.992C957.984,85.434 960.272,84.336 962.717,83.78C963.932,83.503 965.194,83.502 966.432,83.363L1033.22,83.363C1034.45,83.502 1035.69,83.641 1036.93,83.78Z"/>
    </g>
</svg>
