<?xml version="1.0" encoding="UTF-8" standalone="no"?>
<!DOCTYPE svg PUBLIC "-//W3C//DTD SVG 1.1//EN" "http://www.w3.org/Graphics/SVG/1.1/DTD/svg11.dtd">
<svg width="100%" height="100%" viewBox="0 0 1200 1200" version="1.1" xmlns="http://www.w3.org/2000/svg" xmlns:xlink="http://www.w3.org/1999/xlink" xml:space="preserve" xmlns:serif="http://www.serif.com/" style="fill-rule:evenodd;clip-rule:evenodd;stroke-linejoin:round;stroke-miterlimit:2;">
    <g transform="matrix(0.941632,0,0,0.941487,35.022,35.1066)">
        <path d="M1205.18,-26.154C1209.59,-24.814 1210.88,-24.775 1214.76,-22.173C1220.57,-18.281 1224.7,-12.072 1226.06,-5.202C1226.4,-3.493 1226.4,-1.734 1226.57,0L1226.57,1200C1226.12,1204.59 1226.34,1205.88 1224.55,1210.2C1221.88,1216.68 1216.62,1221.96 1210.17,1224.64C1205.86,1226.43 1204.58,1226.21 1200,1226.67L0,1226.67C-4.578,1226.21 -5.856,1226.43 -10.169,1224.64C-16.617,1221.96 -21.879,1216.68 -24.55,1210.2C-26.337,1205.88 -26.122,1204.59 -26.573,1200L-26.573,0C-26.122,-4.594 -26.337,-5.877 -24.55,-10.205C-21.879,-16.676 -16.617,-21.957 -10.169,-24.637C-5.856,-26.429 -4.578,-26.214 0,-26.667L1200,-26.667C1201.73,-26.496 1203.46,-26.325 1205.18,-26.154ZM26.526,207.006L26.526,1177.58L1173.43,1173.33L1173.43,207.006L26.526,207.006Z" style="fill:rgb(34,34,34);"/>
    </g>
</svg>
